<?xml version="1.0" encoding="UTF-8"?><svg id="Layer_1" xmlns="http://www.w3.org/2000/svg" width="400" height="45.77" viewBox="0 0 400 45.77"><path d="M351.98,5.02c0-2.7,2.26-5.02,4.96-5.02s5.02,2.32,5.02,5.02-2.26,4.96-5.02,4.96-4.96-2.26-4.96-4.96ZM352.92,13.46h8.1v31.4h-8.1V13.46Z" fill="#fff"/><path d="M366.15,29.13c0-9.15,7.71-16.55,16.93-16.55s16.93,7.4,16.93,16.55-7.77,16.61-16.93,16.61-16.93-7.4-16.93-16.61ZM383.07,37.97c4.87,0,8.81-3.95,8.81-8.84s-3.94-8.77-8.81-8.77-8.81,3.95-8.81,8.77,3.94,8.84,8.81,8.84Z" fill="#fff"/><path d="M308.8,31.05V13.44h-8.1v17.62c0,3.62-2.94,6.56-6.56,6.56s-6.56-2.94-6.56-6.56h0V13.44h-8.1v17.62c0,8.1,6.57,14.67,14.67,14.67s14.67-6.57,14.67-14.67h0Z" fill="#fff"/><path d="M274.34,21.25v-7.79h-7.12V.88h0l-8.1,4.51v25.69c0,8.09,6.56,14.66,14.65,14.66h.57v-8.11h-.57c-3.62,0-6.55-2.94-6.55-6.56h0v-9.83h7.12Z" fill="#fff"/><path d="M347.78.88h-8.1v14.18c-2.59-1.57-5.62-2.48-8.82-2.48-9.22,0-16.93,7.4-16.93,16.55s7.71,16.61,16.93,16.61,16.91-7.38,16.92-16.58h0V.88ZM330.85,37.97c-4.87,0-8.81-3.95-8.81-8.84s3.94-8.77,8.81-8.77,8.81,3.95,8.81,8.77-3.94,8.84-8.81,8.84Z" fill="#fff"/><path d="M31.4,15.66c0,8.23-6.53,14.76-15.01,14.76h-7.73v14.45H0V.9h16.39c8.48,0,15.01,6.53,15.01,14.76ZM22.8,15.66c0-3.83-2.7-6.66-6.41-6.66h-7.73v13.32h7.73c3.71,0,6.41-2.89,6.41-6.66Z" fill="#fff"/><path d="M71.29,38.4c3.14,0,5.65-1.32,7.03-3.14l6.53,3.77c-2.95,4.27-7.66,6.72-13.69,6.72-10.55,0-17.21-7.22-17.21-16.58s6.72-16.58,16.58-16.58c9.3,0,15.89,7.35,15.89,16.58,0,1.19-.13,2.26-.31,3.33h-23.68c1.13,4.15,4.58,5.9,8.86,5.9ZM78.32,26.21c-1-4.52-4.4-6.34-7.79-6.34-4.33,0-7.29,2.32-8.23,6.34h16.02Z" fill="#fff"/><path d="M146.3,5.02c0-2.7,2.26-5.02,4.96-5.02s5.02,2.32,5.02,5.02-2.26,4.96-5.02,4.96-4.96-2.26-4.96-4.96ZM147.24,13.46h8.1v31.4h-8.1V13.46Z" fill="#fff"/><path d="M177.81,38.43c3.14,0,5.65-1.32,7.03-3.14l6.53,3.77c-2.95,4.27-7.66,6.72-13.69,6.72-10.55,0-17.21-7.22-17.21-16.58s6.72-16.58,16.58-16.58c9.3,0,15.89,7.35,15.89,16.58,0,1.19-.13,2.26-.31,3.33h-23.68c1.13,4.15,4.58,5.9,8.86,5.9ZM184.84,26.24c-1-4.52-4.4-6.34-7.79-6.34-4.33,0-7.29,2.32-8.23,6.34h16.02Z" fill="#fff"/><path d="M127.44,12.58c-4.18,0-7.94,1.75-10.61,4.55-2.67-2.8-6.44-4.55-10.61-4.55-8.1,0-14.67,6.57-14.67,14.67h0v17.62h8.1v-17.62c0-3.62,2.94-6.56,6.56-6.56s6.56,2.94,6.56,6.56h0v17.62h8.1v-17.62c0-3.62,2.94-6.56,6.56-6.56s6.56,2.94,6.56,6.56h0v17.62h8.1v-17.62c0-8.1-6.57-14.67-14.67-14.67Z" fill="#fff"/><path d="M212.74,12.58c-8.1,0-14.67,6.57-14.67,14.67h0v17.62h8.1v-17.62c0-3.62,2.94-6.56,6.56-6.56h2.98v-8.1h-2.98Z" fill="#fff"/><path d="M48.56,12.58c-8.1,0-14.67,6.57-14.67,14.67h0v17.62h8.1v-17.62c0-3.62,2.94-6.56,6.56-6.56h2.98v-8.1h-2.98Z" fill="#fff"/><path d="M239.61,18.99c-6.66-2.01-8.35-3.45-8.35-6.15,0-2.51,2.14-4.4,5.78-4.4.83,0,1.58.08,2.28.23,2.71.59,4.45,2.29,5.7,4.57l7.34-4.09c-2.91-5.47-7.95-8.83-14.47-9.1-.28-.01-.56-.03-.85-.03-7.54,0-14.45,4.77-14.45,13.06s6.53,11.18,13.25,13.13c6.53,1.88,9.48,3.14,9.48,6.41,0,2.45-1.82,4.65-7.03,4.65s-8.34-2.48-9.95-6.34l-7.49,4.17c2.44,6.41,8.3,10.65,17.18,10.65,9.36,0,15.95-5.02,15.95-13.25,0-8.98-7.41-11.31-14.38-13.5Z" fill="#fff"/></svg>